{"asset":{"version":"2.0","generator":"Blockbench 5.0.4 glTF exporter"},"scenes":[{"nodes":[22],"name":"blockbench_export"}],"scene":0,"nodes":[{"translation":[0,-0.375,-0.0625],"name":"cuboid","mesh":0},{"rotation":[0,0,0.7071067811865475,0.7071067811865476],"translation":[0.80625,0.09375,-0.012499999999999997],"name":"cuboid","mesh":1},{"rotation":[0,0,-0.7071067811865475,0.7071067811865476],"name":"plane","mesh":2},{"translation":[0,0.125,1.375],"name":"fire","children":[2]},{"rotation":[-0.7071067811865475,0,0,0.7071067811865476],"name":"plane","mesh":3},{"translation":[-0.075,0.2124999999999999,-0.38125],"name":"red","children":[4]},{"rotation":[0.7071067811865475,0,0,0.7071067811865476],"name":"tube","mesh":4},{"translation":[0,0.125,-0.125],"name":"group","children":[6]},{"translation":[0,0.375,0.0625],"name":"turret1","children":[0,1,3,5,7]},{"translation":[0.5,0.475,0.425],"name":"cuboid","mesh":5},{"translation":[0.50625,0.85625,0.45],"name":"cylinder","mesh":6},{"rotation":[0.16773125000008202,-0.0449434384839735,-0.25488701408133774,0.9512512418721707],"name":"cuboid","mesh":7},{"rotation":[-0.16773125000008202,0.0449434384839735,-0.25488701408133774,0.9512512418721707],"translation":[0,0,0.875],"name":"cuboid","mesh":8},{"rotation":[-0.16773125000008202,-0.0449434384839735,0.25488701408133774,0.9512512418721707],"translation":[1,0,0.875],"name":"cuboid","mesh":9},{"rotation":[0.16773125000008202,0.0449434384839735,0.25488701408133774,0.9512512418721707],"translation":[1,0,0],"name":"cuboid","mesh":10},{"name":"legs","children":[11,12,13,14]},{"rotation":[0,0.3826834323650898,0,0.9238795325112867],"translation":[1.0625,0,-0.9624999999999999],"name":"cuboid","mesh":11},{"rotation":[0,-0.3826834323650898,0,0.9238795325112867],"translation":[0,0,-0.9624999999999999],"name":"cuboid","mesh":12},{"rotation":[0,-0.3826834323650898,0,0.9238795325112867],"translation":[1.0625,0,0],"name":"cuboid","mesh":13},{"rotation":[0,0.3826834323650898,0,0.9238795325112867],"name":"cuboid","mesh":14},{"translation":[-0.03125,-0.4875,0.91875],"name":"stand","children":[16,17,18,19]},{"translation":[-0.5,-0.875,-0.375],"name":"turret2","children":[9,10,15,20]},{"rotation":[0,-1,0,6.123233995736766e-17],"translation":[0,0.875,0.0625],"name":"turret","children":[8,21]}],"bufferViews":[{"buffer":0,"byteOffset":0,"byteLength":288,"target":34962,"byteStride":12},{"buffer":0,"byteOffset":288,"byteLength":288,"target":34962,"byteStride":12},{"buffer":0,"byteOffset":576,"byteLength":192,"target":34962,"byteStride":8},{"buffer":0,"byteOffset":768,"byteLength":72,"target":34963},{"buffer":0,"byteOffset":840,"byteLength":480,"target":34962,"byteStride":12},{"buffer":0,"byteOffset":1320,"byteLength":480,"target":34962,"byteStride":12},{"buffer":0,"byteOffset":1800,"byteLength":320,"target":34962,"byteStride":8},{"buffer":0,"byteOffset":2120,"byteLength":120,"target":34963},{"buffer":0,"byteOffset":2240,"byteLength":96,"target":34962,"byteStride":12},{"buffer":0,"byteOffset":2336,"byteLength":96,"target":34962,"byteStride":12},{"buffer":0,"byteOffset":2432,"byteLength":64,"target":34962,"byteStride":8},{"buffer":0,"byteOffset":2496,"byteLength":24,"target":34963},{"buffer":0,"byteOffset":2520,"byteLength":48,"target":34962,"byteStride":12},{"buffer":0,"byteOffset":2568,"byteLength":48,"target":34962,"byteStride":12},{"buffer":0,"byteOffset":2616,"byteLength":32,"target":34962,"byteStride":8},{"buffer":0,"byteOffset":2648,"byteLength":12,"target":34963},{"buffer":0,"byteOffset":2660,"byteLength":1152,"target":34962,"byteStride":12},{"buffer":0,"byteOffset":3812,"byteLength":1152,"target":34962,"byteStride":12},{"buffer":0,"byteOffset":4964,"byteLength":768,"target":34962,"byteStride":8},{"buffer":0,"byteOffset":5732,"byteLength":288,"target":34963},{"buffer":0,"byteOffset":6020,"byteLength":288,"target":34962,"byteStride":12},{"buffer":0,"byteOffset":6308,"byteLength":288,"target":34962,"byteStride":12},{"buffer":0,"byteOffset":6596,"byteLength":192,"target":34962,"byteStride":8},{"buffer":0,"byteOffset":6788,"byteLength":72,"target":34963},{"buffer":0,"byteOffset":6860,"byteLength":600,"target":34962,"byteStride":12},{"buffer":0,"byteOffset":7460,"byteLength":600,"target":34962,"byteStride":12},{"buffer":0,"byteOffset":8060,"byteLength":400,"target":34962,"byteStride":8},{"buffer":0,"byteOffset":8460,"byteLength":120,"target":34963},{"buffer":0,"byteOffset":8580,"byteLength":288,"target":34962,"byteStride":12},{"buffer":0,"byteOffset":8868,"byteLength":288,"target":34962,"byteStride":12},{"buffer":0,"byteOffset":9156,"byteLength":192,"target":34962,"byteStride":8},{"buffer":0,"byteOffset":9348,"byteLength":72,"target":34963},{"buffer":0,"byteOffset":9420,"byteLength":288,"target":34962,"byteStride":12},{"buffer":0,"byteOffset":9708,"byteLength":288,"target":34962,"byteStride":12},{"buffer":0,"byteOffset":9996,"byteLength":192,"target":34962,"byteStride":8},{"buffer":0,"byteOffset":10188,"byteLength":72,"target":34963},{"buffer":0,"byteOffset":10260,"byteLength":288,"target":34962,"byteStride":12},{"buffer":0,"byteOffset":10548,"byteLength":288,"target":34962,"byteStride":12},{"buffer":0,"byteOffset":10836,"byteLength":192,"target":34962,"byteStride":8},{"buffer":0,"byteOffset":11028,"byteLength":72,"target":34963},{"buffer":0,"byteOffset":11100,"byteLength":288,"target":34962,"byteStride":12},{"buffer":0,"byteOffset":11388,"byteLength":288,"target":34962,"byteStride":12},{"buffer":0,"byteOffset":11676,"byteLength":192,"target":34962,"byteStride":8},{"buffer":0,"byteOffset":11868,"byteLength":72,"target":34963},{"buffer":0,"byteOffset":11940,"byteLength":288,"target":34962,"byteStride":12},{"buffer":0,"byteOffset":12228,"byteLength":288,"target":34962,"byteStride":12},{"buffer":0,"byteOffset":12516,"byteLength":192,"target":34962,"byteStride":8},{"buffer":0,"byteOffset":12708,"byteLength":72,"target":34963},{"buffer":0,"byteOffset":12780,"byteLength":288,"target":34962,"byteStride":12},{"buffer":0,"byteOffset":13068,"byteLength":288,"target":34962,"byteStride":12},{"buffer":0,"byteOffset":13356,"byteLength":192,"target":34962,"byteStride":8},{"buffer":0,"byteOffset":13548,"byteLength":72,"target":34963},{"buffer":0,"byteOffset":13620,"byteLength":288,"target":34962,"byteStride":12},{"buffer":0,"byteOffset":13908,"byteLength":288,"target":34962,"byteStride":12},{"buffer":0,"byteOffset":14196,"byteLength":192,"target":34962,"byteStride":8},{"buffer":0,"byteOffset":14388,"byteLength":72,"target":34963},{"buffer":0,"byteOffset":14460,"byteLength":288,"target":34962,"byteStride":12},{"buffer":0,"byteOffset":14748,"byteLength":288,"target":34962,"byteStride":12},{"buffer":0,"byteOffset":15036,"byteLength":192,"target":34962,"byteStride":8},{"buffer":0,"byteOffset":15228,"byteLength":72,"target":34963},{"buffer":0,"byteOffset":15300,"byteLength":8},{"buffer":0,"byteOffset":15308,"byteLength":24},{"buffer":0,"byteOffset":15332,"byteLength":12},{"buffer":0,"byteOffset":15344,"byteLength":36},{"buffer":0,"byteOffset":15380,"byteLength":92},{"buffer":0,"byteOffset":15472,"byteLength":368},{"buffer":0,"byteOffset":15840,"byteLength":8},{"buffer":0,"byteOffset":15848,"byteLength":24},{"buffer":0,"byteOffset":15872,"byteLength":96},{"buffer":0,"byteOffset":15968,"byteLength":288},{"buffer":0,"byteOffset":16256,"byteLength":16},{"buffer":0,"byteOffset":16272,"byteLength":64}],"buffers":[{"byteLength":16336,"uri":"data:application/octet-stream;base64,"}],"accessors":[{"bufferView":0,"componentType":5126,"count":24,"max":[0.14374999701976776,0.643750011920929,0.3125],"min":[-0.14374999701976776,0.35624998807907104,-0.3125],"type":"VEC3"},{"bufferView":1,"componentType":5126,"count":24,"max":[1,1,1],"min":[-1,-1,-1],"type":"VEC3"},{"bufferView":2,"componentType":5126,"count":24,"max":[0.25,0.421875],"min":[0,0],"type":"VEC2"},{"bufferView":3,"componentType":5123,"count":36,"max":[23],"min":[0],"type":"SCALAR"},{"bufferView":4,"componentType":5126,"count":40,"max":[0.15000000596046448,0.6875,0.15625],"min":[-0.15000000596046448,0.28125,-0.15625],"type":"VEC3"},{"bufferView":5,"componentType":5126,"count":40,"max":[1,1,1],"min":[-1,-1,-1],"type":"VEC3"},{"bufferView":6,"componentType":5126,"count":40,"max":[0.5625,0.5625],"min":[0,0],"type":"VEC2"},{"bufferView":7,"componentType":5123,"count":60,"max":[39],"min":[0],"type":"SCALAR"},{"bufferView":8,"componentType":5126,"count":8,"max":[0.4375,0.4375,0.4375],"min":[-0.4375,-0.4375,-0.4375],"type":"VEC3"},{"bufferView":9,"componentType":5126,"count":8,"max":[0,1,0],"min":[-1,0,0],"type":"VEC3"},{"bufferView":10,"componentType":5126,"count":8,"max":[0.875,0.875],"min":[0,0],"type":"VEC2"},{"bufferView":11,"componentType":5123,"count":12,"max":[7],"min":[0],"type":"SCALAR"},{"bufferView":12,"componentType":5126,"count":4,"max":[0.03125,0,0.03125],"min":[-0.03125,0,-0.03125],"type":"VEC3"},{"bufferView":13,"componentType":5126,"count":4,"max":[0,1,0],"min":[0,1,0],"type":"VEC3"},{"bufferView":14,"componentType":5126,"count":4,"max":[0.25,0.25],"min":[0,0],"type":"VEC2"},{"bufferView":15,"componentType":5123,"count":6,"max":[3],"min":[0],"type":"SCALAR"},{"bufferView":16,"componentType":5126,"count":96,"max":[0.07734999805688858,1.0625,0.0625],"min":[-0.07734999805688858,-0.0625,-0.0625],"type":"VEC3"},{"bufferView":17,"componentType":5126,"count":96,"max":[0.8503593802452087,1,1],"min":[-0.8503593802452087,-1,-1],"type":"VEC3"},{"bufferView":18,"componentType":5126,"count":96,"max":[0.4375,0.734375],"min":[0,0.09375],"type":"VEC2"},{"bufferView":19,"componentType":5123,"count":144,"max":[95],"min":[0],"type":"SCALAR"},{"bufferView":20,"componentType":5126,"count":24,"max":[0.125,0.5625,0.1875],"min":[-0.125,0.4375,-0.1875],"type":"VEC3"},{"bufferView":21,"componentType":5126,"count":24,"max":[1,0.9889363646507263,1],"min":[-1,-1,-1],"type":"VEC3"},{"bufferView":22,"componentType":5126,"count":24,"max":[0.765625,0.703125],"min":[0.09375,0.1875],"type":"VEC2"},{"bufferView":23,"componentType":5123,"count":36,"max":[23],"min":[0],"type":"SCALAR"},{"bufferView":24,"componentType":5126,"count":50,"max":[0.11903499811887741,0.3812499940395355,0.11249999701976776],"min":[-0.13153499364852905,0.08749999850988388,-0.13053375482559204],"type":"VEC3"},{"bufferView":25,"componentType":5126,"count":50,"max":[0.9528112411499023,1,1],"min":[-0.9528112411499023,-1,-0.8034746050834656],"type":"VEC3"},{"bufferView":26,"componentType":5126,"count":50,"max":[0.703125,0.734375],"min":[0.4862562417984009,0.1875],"type":"VEC2"},{"bufferView":27,"componentType":5123,"count":60,"max":[49],"min":[0],"type":"SCALAR"},{"bufferView":28,"componentType":5126,"count":24,"max":[0.03750000149011612,1.0864661931991577,0.03750000149011612],"min":[-0.09062500298023224,0,-0.06897124648094177],"type":"VEC3"},{"bufferView":29,"componentType":5126,"count":24,"max":[0.9988066554069519,1,0.9995807409286499],"min":[-0.9988066554069519,-1,-0.9995807409286499],"type":"VEC3"},{"bufferView":30,"componentType":5126,"count":24,"max":[0.726328432559967,0.7265625],"min":[0.09375,0.0625],"type":"VEC2"},{"bufferView":31,"componentType":5123,"count":36,"max":[23],"min":[0],"type":"SCALAR"},{"bufferView":32,"componentType":5126,"count":24,"max":[0.03750000149011612,1.0864661931991577,0.06897124648094177],"min":[-0.09062500298023224,0,-0.03750000149011612],"type":"VEC3"},{"bufferView":33,"componentType":5126,"count":24,"max":[0.9988066554069519,1,0.9995807409286499],"min":[-0.9988066554069519,-1,-0.9995807409286499],"type":"VEC3"},{"bufferView":34,"componentType":5126,"count":24,"max":[0.7263292074203491,0.7257215976715088],"min":[0.0625,0],"type":"VEC2"},{"bufferView":35,"componentType":5123,"count":36,"max":[23],"min":[0],"type":"SCALAR"},{"bufferView":36,"componentType":5126,"count":24,"max":[0.09062500298023224,1.0864661931991577,0.06897124648094177],"min":[-0.03750000149011612,0,-0.03750000149011612],"type":"VEC3"},{"bufferView":37,"componentType":5126,"count":24,"max":[0.9988066554069519,1,0.9995807409286499],"min":[-0.9988066554069519,-1,-0.9995807409286499],"type":"VEC3"},{"bufferView":38,"componentType":5126,"count":24,"max":[0.7573920488357544,0.7578125],"min":[0.0625,0.09375],"type":"VEC2"},{"bufferView":39,"componentType":5123,"count":36,"max":[23],"min":[0],"type":"SCALAR"},{"bufferView":40,"componentType":5126,"count":24,"max":[0.09062500298023224,1.0864661931991577,0.03750000149011612],"min":[-0.03750000149011612,0,-0.06897124648094177],"type":"VEC3"},{"bufferView":41,"componentType":5126,"count":24,"max":[0.9988066554069519,1,0.9995807409286499],"min":[-0.9988066554069519,-1,-0.9995807409286499],"type":"VEC3"},{"bufferView":42,"componentType":5126,"count":24,"max":[0.7573920488357544,0.7569715976715088],"min":[0.09375,0.03125],"type":"VEC2"},{"bufferView":43,"componentType":5123,"count":36,"max":[23],"min":[0],"type":"SCALAR"},{"bufferView":44,"componentType":5126,"count":24,"max":[0.125,0.518750011920929,0.10000000149011612],"min":[-0.125,0.48124998807907104,-0.10000000149011612],"type":"VEC3"},{"bufferView":45,"componentType":5126,"count":24,"max":[1,0.999687671661377,0.9805806875228882],"min":[-1,-1,-0.9805806875228882],"type":"VEC3"},{"bufferView":46,"componentType":5126,"count":24,"max":[0.78515625,0.734375],"min":[0.5625,0.1875],"type":"VEC2"},{"bufferView":47,"componentType":5123,"count":36,"max":[23],"min":[0],"type":"SCALAR"},{"bufferView":48,"componentType":5126,"count":24,"max":[0.125,0.518750011920929,0.10000000149011612],"min":[-0.125,0.48124998807907104,-0.10000000149011612],"type":"VEC3"},{"bufferView":49,"componentType":5126,"count":24,"max":[1,0.999687671661377,0.9805806875228882],"min":[-1,-1,-0.9805806875228882],"type":"VEC3"},{"bufferView":50,"componentType":5126,"count":24,"max":[0.78515625,0.734375],"min":[0.59375,0.21875],"type":"VEC2"},{"bufferView":51,"componentType":5123,"count":36,"max":[23],"min":[0],"type":"SCALAR"},{"bufferView":52,"componentType":5126,"count":24,"max":[0.125,0.518750011920929,0.10000000149011612],"min":[-0.125,0.48124998807907104,-0.10000000149011612],"type":"VEC3"},{"bufferView":53,"componentType":5126,"count":24,"max":[1,0.999687671661377,0.9805806875228882],"min":[-1,-1,-0.9805806875228882],"type":"VEC3"},{"bufferView":54,"componentType":5126,"count":24,"max":[0.78515625,0.734375],"min":[0.3125,0.296875],"type":"VEC2"},{"bufferView":55,"componentType":5123,"count":36,"max":[23],"min":[0],"type":"SCALAR"},{"bufferView":56,"componentType":5126,"count":24,"max":[0.125,0.518750011920929,0.10000000149011612],"min":[-0.125,0.48124998807907104,-0.10000000149011612],"type":"VEC3"},{"bufferView":57,"componentType":5126,"count":24,"max":[1,0.999687671661377,0.9805806875228882],"min":[-1,-1,-0.9805806875228882],"type":"VEC3"},{"bufferView":58,"componentType":5126,"count":24,"max":[0.78515625,0.734375],"min":[0.25,0.265625],"type":"VEC2"},{"bufferView":59,"componentType":5123,"count":36,"max":[23],"min":[0],"type":"SCALAR"},{"bufferView":60,"componentType":5126,"count":2,"max":[0.3787899911403656],"min":[0],"type":"SCALAR"},{"bufferView":61,"componentType":5126,"count":2,"max":[0,0,0],"min":[0,0,0],"type":"VEC3"},{"bufferView":62,"componentType":5126,"count":3,"max":[0.3787899911403656],"min":[0],"type":"SCALAR"},{"bufferView":63,"componentType":5126,"count":3,"max":[1,1,1],"min":[0.20000000298023224,0.20000000298023224,0.20000000298023224],"type":"VEC3"},{"bufferView":64,"componentType":5126,"count":23,"max":[0.9166666865348816],"min":[0],"type":"SCALAR"},{"bufferView":65,"componentType":5126,"count":23,"max":[0,0.00015229904965963215,0.03489949554204941,0.9999619126319885],"min":[-0.00872520636767149,0,-0.017452405765652657,0.9993908405303955],"type":"VEC4"},{"bufferView":66,"componentType":5126,"count":2,"max":[0.916670024394989],"min":[0],"type":"SCALAR"},{"bufferView":67,"componentType":5126,"count":2,"max":[0,0.375,0.05000000074505806],"min":[0,0.375,0.05000000074505806],"type":"VEC3"},{"bufferView":68,"componentType":5126,"count":24,"max":[0.9206699728965759],"min":[0],"type":"SCALAR"},{"bufferView":69,"componentType":5126,"count":24,"max":[1,1,1],"min":[0,0,0],"type":"VEC3"},{"bufferView":70,"componentType":5126,"count":4,"max":[0.916670024394989],"min":[0],"type":"SCALAR"},{"bufferView":71,"componentType":5126,"count":4,"max":[0,0,0.9987046122550964,1],"min":[0,0,-0.9883615374565125,-0.9948217272758484],"type":"VEC4"}],"materials":[{"pbrMetallicRoughness":{"metallicFactor":0,"roughnessFactor":1,"baseColorTexture":{"index":0}},"alphaMode":"MASK","alphaCutoff":0.05,"doubleSided":true},{"pbrMetallicRoughness":{"metallicFactor":0,"roughnessFactor":1,"baseColorTexture":{"index":1}},"alphaMode":"MASK","alphaCutoff":0.05,"doubleSided":true},{"pbrMetallicRoughness":{"metallicFactor":0,"roughnessFactor":1,"baseColorTexture":{"index":2}},"alphaMode":"MASK","alphaCutoff":0.05,"doubleSided":true}],"textures":[{"sampler":0,"source":0,"name":"turrettex"},{"sampler":1,"source":1,"name":"turretfire"},{"sampler":2,"source":2,"name":"turretred"}],"samplers":[{"magFilter":9728,"minFilter":9728,"wrapS":33071,"wrapT":33071},{"magFilter":9728,"minFilter":9728,"wrapS":33071,"wrapT":33071},{"magFilter":9728,"minFilter":9728,"wrapS":33071,"wrapT":33071}],"images":[{"mimeType":"image/png","uri":"data:image/png;base64,"},{"mimeType":"image/png","uri":"data:image/png;base64,"},{"mimeType":"image/png","uri":"data:image/png;base64,"}],"meshes":[{"primitives":[{"mode":4,"attributes":{"POSITION":0,"NORMAL":1,"TEXCOORD_0":2},"indices":3,"material":0}]},{"primitives":[{"mode":4,"attributes":{"POSITION":4,"NORMAL":5,"TEXCOORD_0":6},"indices":7,"material":0}]},{"primitives":[{"mode":4,"attributes":{"POSITION":8,"NORMAL":9,"TEXCOORD_0":10},"indices":11,"material":1}]},{"primitives":[{"mode":4,"attributes":{"POSITION":12,"NORMAL":13,"TEXCOORD_0":14},"indices":15,"material":2}]},{"primitives":[{"mode":4,"attributes":{"POSITION":16,"NORMAL":17,"TEXCOORD_0":18},"indices":19,"material":0}]},{"primitives":[{"mode":4,"attributes":{"POSITION":20,"NORMAL":21,"TEXCOORD_0":22},"indices":23,"material":0}]},{"primitives":[{"mode":4,"attributes":{"POSITION":24,"NORMAL":25,"TEXCOORD_0":26},"indices":27,"material":0}]},{"primitives":[{"mode":4,"attributes":{"POSITION":28,"NORMAL":29,"TEXCOORD_0":30},"indices":31,"material":0}]},{"primitives":[{"mode":4,"attributes":{"POSITION":32,"NORMAL":33,"TEXCOORD_0":34},"indices":35,"material":0}]},{"primitives":[{"mode":4,"attributes":{"POSITION":36,"NORMAL":37,"TEXCOORD_0":38},"indices":39,"material":0}]},{"primitives":[{"mode":4,"attributes":{"POSITION":40,"NORMAL":41,"TEXCOORD_0":42},"indices":43,"material":0}]},{"primitives":[{"mode":4,"attributes":{"POSITION":44,"NORMAL":45,"TEXCOORD_0":46},"indices":47,"material":0}]},{"primitives":[{"mode":4,"attributes":{"POSITION":48,"NORMAL":49,"TEXCOORD_0":50},"indices":51,"material":0}]},{"primitives":[{"mode":4,"attributes":{"POSITION":52,"NORMAL":53,"TEXCOORD_0":54},"indices":55,"material":0}]},{"primitives":[{"mode":4,"attributes":{"POSITION":56,"NORMAL":57,"TEXCOORD_0":58},"indices":59,"material":0}]}],"animations":[{"name":"turret idle","samplers":[{"input":60,"output":61,"interpolation":"LINEAR"},{"input":62,"output":63,"interpolation":"LINEAR"}],"channels":[{"sampler":0,"target":{"node":3,"path":"scale"}},{"sampler":1,"target":{"node":5,"path":"scale"}}]},{"name":"turret fire","samplers":[{"input":64,"output":65,"interpolation":"LINEAR"},{"input":66,"output":67,"interpolation":"LINEAR"},{"input":68,"output":69,"interpolation":"LINEAR"},{"input":70,"output":71,"interpolation":"LINEAR"}],"channels":[{"sampler":0,"target":{"node":8,"path":"rotation"}},{"sampler":1,"target":{"node":8,"path":"translation"}},{"sampler":2,"target":{"node":3,"path":"scale"}},{"sampler":3,"target":{"node":7,"path":"rotation"}}]}]}